/* XPM */
static char * refresh_xpm[] = {
"20 17 3 1",
" 	c None",
".	c #395284",
"+	c #293952",
"  ...........+      ",
"   .........+   +   ",
"    .......+   ..+  ",
"   .......+   ....+ ",
"  .......+     .... ",
" ....+ .+       ...+",
" ...+  +        ...+",
"....            ...+",
"...+            ...+",
"...+            ...+",
"...+        .  .... ",
"....       .. ....+ ",
" ...+     .......+  ",
" ....+   .......+   ",
"  ..+   .......+    ",
"   +   .........+   ",
"      ++++++++++++  "};
